<svg width="80" height="80" viewBox="0 0 25 25" fill="none" xmlns="http://www.w3.org/2000/svg" transform="rotate(0 0 0)">
<path d="M5.52344 2.5C5.93765 2.5 6.27344 2.83579 6.27344 3.25V4.25H19.0234C19.2779 4.25 19.5151 4.37906 19.6533 4.59277C19.7914 4.80649 19.8118 5.07569 19.7074 5.30777L17.7344 9.69223C17.6463 9.88796 17.6463 10.112 17.7344 10.3078L19.7074 14.6922C19.8118 14.9243 19.7914 15.1935 19.6533 15.4072C19.5151 15.6209 19.2779 15.75 19.0234 15.75H6.27344V21.75C6.27344 22.1642 5.93765 22.5 5.52344 22.5C5.10922 22.5 4.77344 22.1642 4.77344 21.75V3.25C4.77344 2.83579 5.10922 2.5 5.52344 2.5Z" fill="#00ff80"/>
</svg>