<svg width="80" height="80" viewBox="0 0 24 24" fill="none" xmlns="http://www.w3.org/2000/svg" transform="rotate(0 0 0)">
<path fill-rule="evenodd" clip-rule="evenodd" d="M2 12C2 6.47715 6.47715 2 12 2C17.5228 2 22 6.47715 22 12C22 17.5228 17.5228 22 12 22C6.47715 22 2 17.5228 2 12ZM3.53263 12.75H5.75C6.16421 12.75 6.5 12.4142 6.5 12C6.5 11.5858 6.16421 11.25 5.75 11.25H3.53263C3.89072 7.15398 7.15398 3.89072 11.25 3.53263V5.75C11.25 6.16421 11.5858 6.5 12 6.5C12.4142 6.5 12.75 6.16421 12.75 5.75V3.53263C16.846 3.89072 20.1093 7.15398 20.4674 11.25H18.25C17.8358 11.25 17.5 11.5858 17.5 12C17.5 12.4142 17.8358 12.75 18.25 12.75H20.4674C20.1093 16.846 16.846 20.1093 12.75 20.4674V18.25C12.75 17.8358 12.4142 17.5 12 17.5C11.5858 17.5 11.25 17.8358 11.25 18.25V20.4674C7.15398 20.1093 3.89072 16.846 3.53263 12.75Z" fill="#ff0000"></path>
</svg>